<svg xmlns="http://www.w3.org/2000/svg" id="icon" width="24" height="24" fill="none"><path stroke="currentColor" stroke-linecap="round" stroke-linejoin="round" stroke-width="2" d="M19.5 7.5L16.3773 8.83829C16.1284 8.94498 15.8603 9 15.5895 9H8.41052C8.13966 9 7.87163 8.94498 7.62268 8.83829L4.5 7.5M19.5 7.5L18.0758 5.00772C17.7198 4.38457 17.0571 4 16.3394 4H7.66065C6.94293 4 6.28024 4.38457 5.92416 5.00772L4.5 7.5M19.5 7.5L21.1425 8.4855C21.6745 8.8047 22 9.3796 22 10M4.5 7.5L2.85749 8.4855C2.32551 8.8047 2 9.3796 2 10M7 18V16C7 14.8954 7.89543 14 9 14H15C16.1046 14 17 14.8954 17 16V18M7 18H17M7 18C7 19.1046 6.10457 20 5 20H4C2.89543 20 2 19.1046 2 18V10M17 18C17 19.1046 17.8954 20 19 20H20C21.1046 20 22 19.1046 22 18V10M2 10L5.5 11.5556M22 10L18.5 11.5556"/><path stroke="currentColor" stroke-linecap="round" stroke-width="2" d="M4.5 7.5 2.5 6.5M19.5 7.5 21.5 6.5"/></svg>