<svg width="102" height="17" viewBox="0 0 102 17" fill="none" xmlns="http://www.w3.org/2000/svg">
<path d="M99.3192 7.5414C100.806 7.5414 102 8.71747 102 10.1809C102 11.6443 100.806 12.7944 99.3192 12.7944C97.8327 12.7944 96.6644 11.6443 96.6644 10.1809C96.6644 8.71747 97.8591 7.5414 99.3192 7.5414Z" fill="#3E47DD"/>
<path d="M82.5981 6.76968C82.5981 2.77144 85.9958 0.00126977 89.4734 0.00126977C92.951 0.00126977 95.6322 2.37941 95.6322 6.01229C95.6322 10.0105 92.2345 12.7813 88.7569 12.7813C85.2793 12.7813 82.5981 10.4032 82.5981 6.77033V6.76968ZM91.4909 6.0903C91.4909 4.73155 90.6417 3.66015 89.3407 3.66015C87.9605 3.66015 86.7394 4.88823 86.7394 6.69167C86.7394 8.05042 87.5887 9.12247 88.8896 9.12247C90.2699 9.12247 91.4909 7.89439 91.4909 6.09095V6.0903Z" fill="#3E47DD"/>
<path fill-rule="evenodd" clip-rule="evenodd" d="M75.9434 10.433C75.332 11.3114 74.1381 11.9889 72.5474 11.9889C69.5743 11.9889 67.3178 9.55093 67.3178 6.53502C67.3178 2.53872 70.3173 0 73.5829 0C75.6565 0 76.9784 1.1095 77.4088 1.91625L77.6892 0.313347H81.7136L79.4546 12.5798C78.8935 15.4079 77.9362 17 74.3051 17H68.1063L68.7172 13.5498H73.6463C74.664 13.5498 75.4577 13.0811 75.675 11.9109L75.8725 10.8453L75.9434 10.433ZM71.5383 6.18265C71.5383 4.64966 72.733 3.44304 74.2195 3.44304C75.6004 3.44304 76.556 4.5736 76.556 5.70481C76.556 7.2378 75.3878 8.59525 73.9012 8.59525C72.4147 8.59525 71.5383 7.46469 71.5383 6.18265Z" fill="#3E47DD"/>
<path fill-rule="evenodd" clip-rule="evenodd" d="M51.9561 7.06355C51.9561 10.4052 54.1308 12.7814 56.9949 12.7814C58.772 12.7814 59.9125 11.7893 60.3364 10.9799L60.0446 12.468H64.2347L66.3572 0.327643H62.2007L61.8824 2.14798C61.5905 1.44325 60.6812 0.0142849 58.2417 0.0142849C54.8473 0.0142849 51.9561 2.78185 51.9561 7.06355ZM58.348 9.12638C57.0484 9.12638 56.1205 8.05563 56.1205 6.69818C56.1205 4.89669 57.4202 3.66992 58.7991 3.66992C60.0987 3.66992 61.0001 4.74066 61.0001 6.09812C61.0001 7.8996 59.7269 9.12703 58.348 9.12703V9.12638Z" fill="#3E47DD"/>
<path fill-rule="evenodd" clip-rule="evenodd" d="M43.6633 0.327664H39.314L40.4016 12.468H45.7587L52.5218 0.327664H47.6415L44.0879 7.87297L43.6633 0.327664Z" fill="#3E47DD"/>
<path d="M37.5138 4.68018H36.2664C34.4609 4.68018 33.8507 5.33355 33.6116 6.87564L32.6296 12.4686H28.4619L30.585 0.315918H34.5936L34.2482 2.25003C34.9918 0.96929 35.7968 0.315918 37.1506 0.315918H38.2574L37.5138 4.68018Z" fill="#3E47DD"/>
<path fill-rule="evenodd" clip-rule="evenodd" d="M13.4605 7.06361C13.4605 10.4052 15.6351 12.7814 18.4992 12.7814C20.2763 12.7814 21.4168 11.7893 21.8408 10.9799L21.5489 12.4681H25.7391L27.8609 0.327707H23.7044L23.3861 2.14805C23.0949 1.44266 22.1855 0.0143484 19.746 0.0143484C16.3516 0.0143484 13.4605 2.78191 13.4605 7.06361ZM19.8524 9.12644C18.5527 9.12644 17.6249 8.05569 17.6249 6.69824C17.6249 4.89676 18.9245 3.66998 20.3034 3.66998C21.6031 3.66998 22.5045 4.74073 22.5045 6.09818C22.5045 7.89967 21.2313 9.12709 19.8524 9.12709V9.12644Z" fill="#3E47DD"/>
<path fill-rule="evenodd" clip-rule="evenodd" d="M8.70102 7.8177C8.25394 8.68042 7.406 9.11145 6.47155 9.11145C5.12502 9.11145 4.26453 8.0407 4.28897 6.68324C4.32199 4.82975 5.55163 3.65498 6.98071 3.65498C7.93563 3.65498 8.65876 4.15947 8.97707 4.97603L12.8991 3.5152C11.9904 1.3204 9.81378 0 7.07317 0C3.19866 0 0.0717233 2.76757 0.0010617 6.76191C-0.062996 10.3909 2.77998 12.7671 6.26947 12.7671C8.78952 12.7671 11.229 11.7126 12.4817 9.39685L8.70102 7.81836V7.8177Z" fill="#3E47DD"/>
</svg>
